
<svg xmlns="http://www.w3.org/2000/svg" width="200" height="60" viewBox="0 0 200 60">
  <g fill="none" fill-rule="evenodd">
    <path fill="#1A91DB" d="M36.2,10.1c-2.3-2.3-5.4-3.6-8.7-3.6c-3.3,0-6.4,1.3-8.7,3.6L7.5,21.4c-4.8,4.8-4.8,12.6,0,17.4 c2.3,2.3,5.4,3.6,8.7,3.6c3.3,0,6.4-1.3,8.7-3.6l11.3-11.3C40.9,22.7,40.9,14.9,36.2,10.1z"/>
    <path fill="#FFD100" d="M43.8,28.8L32.5,40.1c-2.3,2.3-3.6,5.4-3.6,8.7c0,3.3,1.3,6.4,3.6,8.7c2.3,2.3,5.4,3.6,8.7,3.6 c3.3,0,6.4-1.3,8.7-3.6l11.3-11.3c4.8-4.8,4.8-12.6,0-17.4c-2.3-2.3-5.4-3.6-8.7-3.6C49.2,25.2,46.1,26.5,43.8,28.8z"/>
    <path fill="#192841" d="M88.1,38.6h14.3v4.7H82.4V16.9h5.7V38.6z M119.3,43.3l-2.2-5.4h-10.3l-2.2,5.4h-6.1l10.6-26.4h5.8 l10.6,26.4H119.3z M112.1,25.2l-3.2,8h6.4L112.1,25.2z M143.5,43.3h-5.7V22h-7.7v-5.1h21.1V22h-7.7V43.3z M154.3,16.9h5.7v26.4 h-5.7V16.9z M181.1,21.3c-1.2-0.3-2.3-0.4-3.1-0.4c-1.7,0-3,0.5-4,1.4c-1,0.9-1.5,2.3-1.5,4v17.1h-5.7V16.9h5.4v2.8 c1.3-2.1,3.4-3.1,6.4-3.1c0.9,0,1.7,0.1,2.5,0.3V21.3z M196.7,21.9h-6.3v12.1c0,0.9,0.2,1.6,0.7,2c0.5,0.4,1.2,0.6,2.2,0.6 c1,0,2-0.3,3-0.8v4.5c-1.4,0.8-3.1,1.2-5.1,1.2c-2.6,0-4.5-0.7-5.8-2c-1.3-1.3-1.9-3.1-1.9-5.5V21.9h-4.2v-5h4.2v-5.4l5.7-1.7 v7.1h6.3V21.9z"/>
    <path fill="#FFFFFF" stroke="#1A91DB" stroke-width="2" d="M32.8,17.5L21.5,28.8c-2.3,2.3-2.3,6.1,0,8.4c2.3,2.3,6.1,2.3,8.4,0l11.3-11.3 c2.3-2.3,2.3-6.1,0-8.4C38.9,15.1,35.1,15.1,32.8,17.5z"/>
    <path fill="#FFFFFF" stroke="#FFD100" stroke-width="2" d="M28.8,32.5l11.3-11.3c2.3-2.3,6.1-2.3,8.4,0c2.3,2.3,2.3,6.1,0,8.4 L37.2,40.9c-2.3,2.3-6.1,2.3-8.4,0C26.5,38.6,26.5,34.8,28.8,32.5z"/>
  </g>
</svg>
