
<svg xmlns="http://www.w3.org/2000/svg" viewBox="0 0 183 56">
  <path d="M15.0873,39.0543 C15.0873,39.0543 8.15731,39.8343 7.51731,35.0743 C6.87731,30.3143 15.3273,28.9143 15.3273,28.9143 L40.7073,17.9143 C40.7073,17.9143 47.6373,17.1343 48.2773,21.8943 C48.9173,26.6543 40.4673,28.0543 40.4673,28.0543 L15.0873,39.0543 Z" fill="#2897FF"/>
  <path d="M29.7673,7.89432 C29.7673,7.89432 33.0873,2.09432 37.6873,4.85432 C42.2873,7.61432 39.4673,15.2543 39.4673,15.2543 L24.5073,44.3143 C24.5073,44.3143 21.1873,50.1143 16.5873,47.3543 C11.9873,44.5943 14.8073,36.9543 14.8073,36.9543 L29.7673,7.89432 Z" fill="#2897FF"/>
  <path d="M17.1873,28.0543 C18.9073,31.9143 23.3873,33.5943 27.2473,31.8743 C31.1073,30.1543 32.7873,25.6743 31.0673,21.8143 C29.3473,17.9543 24.8673,16.2743 21.0073,17.9943 C17.1473,19.7143 15.4673,24.1943 17.1873,28.0543 Z" fill="#FFD23D"/>
  <path d="M67.6973,42.8543 L67.6973,13.9943 L74.1473,13.9943 L74.1473,37.2843 L85.3773,37.2843 L85.3773,42.8543 L67.6973,42.8543 Z" fill="#141E42"/>
  <path d="M95.9273,42.8543 L86.5973,13.9943 L93.5373,13.9943 L99.7173,35.7243 L106.107,13.9943 L113.047,13.9943 L103.507,42.8543 L95.9273,42.8543 Z" fill="#141E42"/>
  <path d="M122.737,42.8543 L113.857,13.9943 L120.797,13.9943 L126.977,35.7243 L133.367,13.9943 L140.307,13.9943 L131.427,42.8543 L122.737,42.8543 Z" fill="#141E42"/>
  <path d="M152.577,26.3443 C152.577,22.5943 149.537,19.5643 145.787,19.5643 C142.037,19.5643 138.997,22.5943 138.997,26.3443 C138.997,30.0943 142.037,33.1243 145.787,33.1243 C149.537,33.1243 152.577,30.0943 152.577,26.3443 Z M159.247,26.3443 C159.247,33.7843 153.227,39.7943 145.787,39.7943 C138.347,39.7943 132.327,33.7843 132.327,26.3443 C132.327,18.9043 138.347,12.8943 145.787,12.8943 C153.227,12.8943 159.247,18.9043 159.247,26.3443 Z" fill="#141E42"/>
  <path d="M169.147,28.9643 L168.267,28.9643 L168.267,42.8543 L161.817,42.8543 L161.817,13.9943 L169.697,13.9943 C176.307,13.9943 181.017,17.6243 181.017,23.4843 C181.017,25.7943 180.297,28.1643 178.677,29.7843 L181.917,42.8543 L174.977,42.8543 L172.277,30.9243 C171.497,30.2143 170.367,29.5043 169.147,28.9643 Z M169.537,19.3443 L168.267,19.3443 L168.267,23.8143 L169.537,23.8143 C171.497,23.8143 172.777,22.9943 172.777,21.6043 C172.777,20.2143 171.497,19.3443 169.537,19.3443 Z" fill="#141E42"/>
</svg>
